<?xml version="1.0" encoding="utf-8"?>
<!-- Generator: Adobe Illustrator 15.0.2, SVG Export Plug-In . SVG Version: 6.00 Build 0)  -->
<!DOCTYPE svg PUBLIC "-//W3C//DTD SVG 1.1//EN" "http://www.w3.org/Graphics/SVG/1.1/DTD/svg11.dtd">
<svg version="1.1" xmlns="http://www.w3.org/2000/svg" xmlns:xlink="http://www.w3.org/1999/xlink" x="0px" y="0px" width="518px"
	 height="226.242px" viewBox="0 0 518 226.242" enable-background="new 0 0 518 226.242" xml:space="preserve">
<g id="mozek">
	<g>
		<g>
			
				<path id="left" fill="none" stroke="#000000" stroke-width="18" stroke-linecap="round" stroke-linejoin="round" stroke-miterlimit="10" d="
				M-387.084-227.667c0-41.831,0-404.029,0-422.394c0-18.365,2.06-42.342-37.222-42.342c-76.011,0-96.408,47.443-100.999,59.686
				c-81.112,34.689-104.574,95.906-60.957,184.67c-41.576,56.116-10.009,104.834,30.164,120.138
				c-16.197,55.095,1.45,94.12,61.647,94.12C-489.218-178.562-387.084-180.73-387.084-227.667z"/>
			
				<path id="right" fill="none" stroke="#000000" stroke-width="18" stroke-linecap="round" stroke-linejoin="round" stroke-miterlimit="10" d="
				M-387.084-227.667c0-41.831,0-404.029,0-422.394c0-18.365,6.562-42.342,45.843-42.342c76.012,0,100.717,47.443,105.309,59.686
				c81.111,34.689,106.731,95.906,63.114,184.67c41.576,56.116,11.086,104.834-29.086,120.138
				c16.197,55.095-9.535,94.12-69.731,94.12C-276.869-178.562-387.084-180.73-387.084-227.667z"/>
		</g>
		<g>
			
				<path fill="none" stroke="#000000" stroke-width="18.4252" stroke-linecap="round" stroke-linejoin="round" stroke-miterlimit="10" d="
				M-507.78-547.352c15.567,0,61.894,7.48,69.036-46.594"/>
			
				<path fill="none" stroke="#000000" stroke-width="18.4252" stroke-linecap="round" stroke-linejoin="round" stroke-miterlimit="10" d="
				M-585.237-448.046c0,0,63.509-59.857,128.128,0"/>
			
				<path fill="none" stroke="#000000" stroke-width="18.4252" stroke-linecap="round" stroke-linejoin="round" stroke-miterlimit="10" d="
				M-526.145-379.006c36.73,0,64.616,22.785,64.616,87.062"/>
			
				<path fill="none" stroke="#000000" stroke-width="18.4252" stroke-linecap="round" stroke-linejoin="round" stroke-miterlimit="10" d="
				M-259.514-235.486c-24.486,0-63.257-38.093-54.075-78.903"/>
			
				<path fill="none" stroke="#000000" stroke-width="18.4252" stroke-linecap="round" stroke-linejoin="round" stroke-miterlimit="10" d="
				M-267.37-400.807c35.359,0,70.432-4.047,94.017-43.71"/>
			
				<path fill="none" stroke="#000000" stroke-width="18.4252" stroke-linecap="round" stroke-linejoin="round" stroke-miterlimit="10" d="
				M-209.182-502.461c-30.607,0-84.34-14.621-84.34-70.059"/>
		</g>
	</g>
</g>
<g id="oko">
	<g>
		
			<circle fill="none" stroke="#000000" stroke-width="18.4252" stroke-linecap="round" stroke-linejoin="round" stroke-miterlimit="10" cx="259.029" cy="-442.402" r="95.492"/>
		
			<path fill="none" stroke="#000000" stroke-width="18.4252" stroke-linecap="round" stroke-linejoin="round" stroke-miterlimit="10" d="
			M509.029-442.402c0,0-111.93,154.507-250,154.507s-250-154.507-250-154.507s111.93-154.507,250-154.507
			S509.029-442.402,509.029-442.402z"/>
	</g>
</g>
<g id="perception">
	<g>
		
			<path fill="none" stroke="#000000" stroke-width="18.4252" stroke-linecap="round" stroke-linejoin="round" stroke-miterlimit="10" d="
			M647.916-264.902c0,0,111.93-154.507,250-154.507s250,154.507,250,154.507"/>
		<g>
			
				<line fill="none" stroke="#000000" stroke-width="18.4252" stroke-linecap="round" stroke-linejoin="round" stroke-miterlimit="10" x1="982.922" y1="-471.356" x2="1102.89" y2="-409.901"/>
			
				<line fill="none" stroke="#000000" stroke-width="18.4252" stroke-linecap="round" stroke-linejoin="round" stroke-miterlimit="10" x1="692.943" y1="-619.902" x2="812.904" y2="-558.451"/>
			
				<line fill="none" stroke="#000000" stroke-width="18.4252" stroke-linecap="round" stroke-linejoin="round" stroke-miterlimit="10" x1="812.904" y1="-471.353" x2="692.943" y2="-409.902"/>
			
				<line fill="none" stroke="#000000" stroke-width="18.4252" stroke-linecap="round" stroke-linejoin="round" stroke-miterlimit="10" x1="1102.89" y1="-619.902" x2="982.922" y2="-558.447"/>
		</g>
		
			<circle fill="none" stroke="#000000" stroke-width="18.4252" stroke-linecap="round" stroke-linejoin="round" stroke-miterlimit="10" cx="897.916" cy="-514.902" r="95.492"/>
	</g>
	<g>
		
			<path fill="none" stroke="#000000" stroke-width="18.4252" stroke-linecap="round" stroke-linejoin="round" stroke-miterlimit="10" d="
			M647.916,273.099c0,0,111.93-154.508,250-154.508s250,154.508,250,154.508"/>
		<g>
			
				<line fill="none" stroke="#000000" stroke-width="18.4252" stroke-linecap="round" stroke-linejoin="round" stroke-miterlimit="10" x1="939.831" y1="-62.725" x2="1002.916" y2="-185.875"/>
			
				<line fill="none" stroke="#000000" stroke-width="18.4252" stroke-linecap="round" stroke-linejoin="round" stroke-miterlimit="10" x1="792.916" y1="-185.875" x2="856.002" y2="-62.723"/>
		</g>
		
			<circle fill="none" stroke="#000000" stroke-width="18.4252" stroke-linecap="round" stroke-linejoin="round" stroke-miterlimit="10" cx="897.916" cy="23.099" r="95.492"/>
	</g>
</g>
<g id="rozhodovani">
	<g>
		<path d="M-392.869,214.282c-6.954,0-12.611-5.657-12.611-12.611c0-7.071,5.54-12.611,12.611-12.611
			c7.341,0,12.877,5.422,12.877,12.611C-379.992,208.625-385.768,214.282-392.869,214.282z M-395.255,138.804
			c-2.203,0-4.829-0.921-4.829-5.309v-15.387c0-13.882,11.931-22.597,22.458-30.286c10.608-7.748,21.577-15.759,21.577-28.341
			c0-12.405-10.75-25.59-30.673-25.59c-20.996,0-31.618,12.111-35.617,16.671c-0.499,0.568-0.907,1.019-1.203,1.314
			c-0.566,0.567-1.748,1.75-3.583,1.75c-1.08,0-2.209-0.404-3.458-1.236l-2.691-1.881c-4.435-3.105-2.086-6.63-1.315-7.788
			c0.144-0.223,15.504-23.439,48.619-23.439c27.377,0,45.771,15.835,45.771,39.403c0,21.125-15.628,32.177-28.186,41.058
			l-0.593,0.419c-8.642,6.109-16.106,11.386-16.106,18.211v15.122c0,3.572-1.678,5.309-5.131,5.309H-395.255z"/>
		<path d="M-392.869,213.282c-6.402,0-11.611-5.209-11.611-11.611c0-6.511,5.1-11.611,11.611-11.611
			c6.771,0,11.877,4.992,11.877,11.611C-380.992,208.073-386.32,213.282-392.869,213.282z M-395.255,137.804
			c-2.58,0-3.829-1.401-3.829-4.309v-15.387c0-13.245,11.121-21.497,22.048-29.479c10.853-7.927,21.987-16.124,21.987-29.148
			c0-12.89-11.129-26.59-31.673-26.59c-21.425,0-32.288,12.358-36.369,17.012c-0.48,0.547-0.872,0.98-1.158,1.266
			c-0.705,0.706-1.573,1.458-2.877,1.458c-0.874,0.001-1.825-0.35-2.903-1.068l-2.673-1.868c-3.634-2.545-1.893-5.158-1.055-6.415
			c0.141-0.219,15.254-22.993,47.786-22.993c26.779,0,44.771,15.433,44.771,38.403c0,20.72-15.577,31.622-27.965,40.384
			c-8.994,6.359-16.919,11.853-16.919,19.304v15.122c0,3.039-1.262,4.309-4.131,4.309H-395.255z"/>
		<path d="M-392.869,213.282c-6.402,0-11.611-5.209-11.611-11.611c0-6.511,5.1-11.611,11.611-11.611
			c6.771,0,11.877,4.992,11.877,11.611C-380.992,208.073-386.32,213.282-392.869,213.282z M-395.255,137.804
			c-2.58,0-3.829-1.401-3.829-4.309v-15.387c0-13.245,11.121-21.497,22.048-29.479c10.853-7.927,21.987-16.124,21.987-29.148
			c0-12.89-11.129-26.59-31.673-26.59c-21.425,0-32.288,12.358-36.369,17.012c-0.48,0.547-0.872,0.98-1.158,1.266
			c-0.705,0.706-1.573,1.458-2.877,1.458c-0.874,0.001-1.825-0.35-2.903-1.068l-2.673-1.868c-3.634-2.545-1.893-5.158-1.055-6.415
			c0.141-0.219,15.254-22.993,47.786-22.993c26.779,0,44.771,15.433,44.771,38.403c0,20.72-15.577,31.622-27.965,40.384
			c-8.994,6.359-16.919,11.853-16.919,19.304v15.122c0,3.039-1.262,4.309-4.131,4.309H-395.255z"/>
		<path d="M-398.438,133.495v-15.387c0-25.733,44.301-31.833,44.301-58.627c0-13.794-11.672-27.59-32.629-27.59
			c-24.405,0-35.547,15.917-38.2,18.57c-1.061,1.062-2.122,1.857-4.509,0.265l-2.653-1.855c-2.653-1.857-1.856-3.449-0.795-5.041
			c0,0,14.589-22.548,46.954-22.548c26.793,0,43.771,15.651,43.771,37.403c0,35.018-44.567,40.853-44.567,59.688v15.122
			c0,2.387-1.061,3.713-3.448,3.713h-5.041C-397.644,137.208-398.438,135.352-398.438,133.495z M-392.869,191.06
			c6.102,0,10.877,4.51,10.877,10.611c0,5.835-4.775,10.611-10.877,10.611c-5.835,0-10.611-4.776-10.611-10.611
			C-403.479,195.569-398.704,191.06-392.869,191.06z"/>
	</g>
	
		<circle fill="none" stroke="#000000" stroke-width="18.4252" stroke-linecap="round" stroke-linejoin="round" stroke-miterlimit="10" cx="-387.971" cy="116.599" r="154.499"/>
</g>
<g id="jazyk">
	<g>
		
			<path fill="none" stroke="#000000" stroke-width="18.4252" stroke-linecap="round" stroke-linejoin="round" stroke-miterlimit="10" d="
			M95.693,115.818c0,0,73.321,101.211,163.764,101.211s163.764-101.211,163.764-101.211"/>
		<g>
			<g>
				
					<path fill="none" stroke="#000000" stroke-width="18" stroke-linecap="round" stroke-linejoin="round" stroke-miterlimit="10" d="
					M9,65.644c0,0,16.82,19.16,30.275,19.16s160.855,0,160.855,0s59.328,2.655,59.328,11.217"/>
				
					<path fill="none" stroke="#000000" stroke-width="18.4252" stroke-linecap="round" stroke-linejoin="round" stroke-miterlimit="10" d="
					M77.196,85.016c0-40.366,153.822-111.62,182.263-54.433"/>
			</g>
			<g>
				
					<path fill="none" stroke="#000000" stroke-width="18" stroke-linecap="round" stroke-linejoin="round" stroke-miterlimit="10" d="
					M509,67.562c0,0-16.82,19.242-30.275,19.242s-160.854,0-160.854,0s-59.329,2.613-59.329,11.176"/>
				
					<path fill="none" stroke="#000000" stroke-width="18.4252" stroke-linecap="round" stroke-linejoin="round" stroke-miterlimit="10" d="
					M440.804,86.851c0-40.367-153.822-111.62-182.263-54.433"/>
			</g>
		</g>
	</g>
</g>
</svg>
