<?xml version="1.0" encoding="utf-8"?>
<!-- Generator: Adobe Illustrator 15.0.2, SVG Export Plug-In . SVG Version: 6.00 Build 0)  -->
<!DOCTYPE svg PUBLIC "-//W3C//DTD SVG 1.1//EN" "http://www.w3.org/Graphics/SVG/1.1/DTD/svg11.dtd">
<svg version="1.1" xmlns="http://www.w3.org/2000/svg" xmlns:xlink="http://www.w3.org/1999/xlink" x="0px" y="0px"
	 width="474.109px" height="518px" viewBox="0 0 474.109 518" enable-background="new 0 0 474.109 518" xml:space="preserve">
<g id="mozek">
	<g>
		<g>
			
				<path id="left" fill="none" stroke="#000000" stroke-width="18" stroke-linecap="round" stroke-linejoin="round" stroke-miterlimit="10" d="
				M229.784,473.736c0-41.831,0-404.029,0-422.394c0-18.365,2.06-42.342-37.222-42.342C116.552,9,96.155,56.443,91.563,68.686
				c-81.112,34.689-104.574,95.906-60.957,184.67C-10.97,309.472,20.598,358.19,60.771,373.494
				c-16.197,55.095,1.45,94.12,61.647,94.12C127.65,522.84,229.784,520.672,229.784,473.736z"/>
			
				<path id="right" fill="none" stroke="#000000" stroke-width="18" stroke-linecap="round" stroke-linejoin="round" stroke-miterlimit="10" d="
				M229.784,473.736c0-41.831,0-404.029,0-422.394C229.784,32.977,236.346,9,275.627,9c76.012,0,100.717,47.443,105.309,59.686
				c81.111,34.689,106.731,95.906,63.114,184.67c41.576,56.116,11.086,104.834-29.086,120.138
				c16.197,55.095-9.535,94.12-69.731,94.12C339.999,522.84,229.784,520.672,229.784,473.736z"/>
		</g>
		<g>
			
				<path fill="none" stroke="#000000" stroke-width="18.4252" stroke-linecap="round" stroke-linejoin="round" stroke-miterlimit="10" d="
				M109.088,154.051c15.567,0,61.894,7.48,69.036-46.594"/>
			
				<path fill="none" stroke="#000000" stroke-width="18.4252" stroke-linecap="round" stroke-linejoin="round" stroke-miterlimit="10" d="
				M31.631,253.356c0,0,63.509-59.857,128.128,0"/>
			
				<path fill="none" stroke="#000000" stroke-width="18.4252" stroke-linecap="round" stroke-linejoin="round" stroke-miterlimit="10" d="
				M90.724,322.396c36.73,0,64.616,22.785,64.616,87.062"/>
			
				<path fill="none" stroke="#000000" stroke-width="18.4252" stroke-linecap="round" stroke-linejoin="round" stroke-miterlimit="10" d="
				M357.354,465.916c-24.486,0-63.257-38.093-54.075-78.903"/>
			
				<path fill="none" stroke="#000000" stroke-width="18.4252" stroke-linecap="round" stroke-linejoin="round" stroke-miterlimit="10" d="
				M349.499,300.596c35.359,0,70.432-4.047,94.017-43.71"/>
			
				<path fill="none" stroke="#000000" stroke-width="18.4252" stroke-linecap="round" stroke-linejoin="round" stroke-miterlimit="10" d="
				M407.687,198.941c-30.607,0-84.34-14.621-84.34-70.059"/>
		</g>
	</g>
</g>
<g id="oko">
	<g>
		
			<circle fill="none" stroke="#000000" stroke-width="18.4252" stroke-linecap="round" stroke-linejoin="round" stroke-miterlimit="10" cx="875.897" cy="259" r="95.492"/>
		
			<path fill="none" stroke="#000000" stroke-width="18.4252" stroke-linecap="round" stroke-linejoin="round" stroke-miterlimit="10" d="
			M1125.897,259c0,0-111.93,154.507-250,154.507S625.897,259,625.897,259s111.93-154.507,250-154.507S1125.897,259,1125.897,259z"/>
	</g>
</g>
<g id="perception">
	<g>
		
			<path fill="none" stroke="#000000" stroke-width="18.4252" stroke-linecap="round" stroke-linejoin="round" stroke-miterlimit="10" d="
			M1264.784,436.5c0,0,111.93-154.507,250-154.507s250,154.507,250,154.507"/>
		<g>
			
				<line fill="none" stroke="#000000" stroke-width="18.4252" stroke-linecap="round" stroke-linejoin="round" stroke-miterlimit="10" x1="1599.79" y1="230.046" x2="1719.758" y2="291.501"/>
			
				<line fill="none" stroke="#000000" stroke-width="18.4252" stroke-linecap="round" stroke-linejoin="round" stroke-miterlimit="10" x1="1309.812" y1="81.5" x2="1429.772" y2="142.952"/>
			
				<line fill="none" stroke="#000000" stroke-width="18.4252" stroke-linecap="round" stroke-linejoin="round" stroke-miterlimit="10" x1="1429.772" y1="230.049" x2="1309.812" y2="291.5"/>
			
				<line fill="none" stroke="#000000" stroke-width="18.4252" stroke-linecap="round" stroke-linejoin="round" stroke-miterlimit="10" x1="1719.758" y1="81.5" x2="1599.79" y2="142.955"/>
		</g>
		
			<circle fill="none" stroke="#000000" stroke-width="18.4252" stroke-linecap="round" stroke-linejoin="round" stroke-miterlimit="10" cx="1514.784" cy="186.5" r="95.492"/>
	</g>
	<g>
		
			<path fill="none" stroke="#000000" stroke-width="18.4252" stroke-linecap="round" stroke-linejoin="round" stroke-miterlimit="10" d="
			M1264.784,974.501c0,0,111.93-154.508,250-154.508s250,154.508,250,154.508"/>
		<g>
			
				<line fill="none" stroke="#000000" stroke-width="18.4252" stroke-linecap="round" stroke-linejoin="round" stroke-miterlimit="10" x1="1556.699" y1="638.678" x2="1619.784" y2="515.527"/>
			
				<line fill="none" stroke="#000000" stroke-width="18.4252" stroke-linecap="round" stroke-linejoin="round" stroke-miterlimit="10" x1="1409.784" y1="515.527" x2="1472.87" y2="638.68"/>
		</g>
		
			<circle fill="none" stroke="#000000" stroke-width="18.4252" stroke-linecap="round" stroke-linejoin="round" stroke-miterlimit="10" cx="1514.784" cy="724.501" r="95.492"/>
	</g>
</g>
<g id="rozhodovani">
	<g>
		<g>
			<path d="M224,915.685c-6.954,0-12.611-5.657-12.611-12.611c0-7.071,5.54-12.611,12.611-12.611
				c7.341,0,12.877,5.422,12.877,12.611C236.876,910.027,231.1,915.685,224,915.685z M221.613,840.206
				c-2.203,0-4.829-0.921-4.829-5.309v-15.387c0-13.882,11.931-22.597,22.458-30.286c10.608-7.748,21.577-15.759,21.577-28.341
				c0-12.405-10.75-25.59-30.673-25.59c-20.996,0-31.618,12.111-35.617,16.671c-0.499,0.568-0.907,1.019-1.203,1.314
				c-0.566,0.567-1.748,1.75-3.583,1.75c-1.08,0-2.209-0.404-3.458-1.236l-2.691-1.881c-4.435-3.105-2.086-6.63-1.315-7.788
				c0.144-0.223,15.504-23.439,48.619-23.439c27.377,0,45.771,15.835,45.771,39.403c0,21.125-15.628,32.177-28.186,41.058
				l-0.593,0.419c-8.642,6.109-16.106,11.386-16.106,18.211v15.122c0,3.572-1.678,5.309-5.131,5.309H221.613z"/>
			<path d="M224,914.685c-6.402,0-11.611-5.209-11.611-11.611c0-6.511,5.1-11.611,11.611-11.611c6.771,0,11.877,4.992,11.877,11.611
				C235.876,909.476,230.548,914.685,224,914.685z M221.613,839.206c-2.58,0-3.829-1.401-3.829-4.309v-15.387
				c0-13.245,11.121-21.497,22.048-29.479c10.853-7.927,21.987-16.124,21.987-29.148c0-12.89-11.129-26.59-31.673-26.59
				c-21.425,0-32.288,12.358-36.369,17.012c-0.48,0.547-0.872,0.98-1.158,1.266c-0.705,0.706-1.573,1.458-2.877,1.458
				c-0.874,0.001-1.825-0.35-2.903-1.068l-2.673-1.868c-3.634-2.545-1.893-5.158-1.055-6.415
				c0.141-0.219,15.254-22.993,47.786-22.993c26.779,0,44.771,15.433,44.771,38.403c0,20.72-15.577,31.622-27.965,40.384
				c-8.994,6.359-16.919,11.853-16.919,19.304v15.122c0,3.039-1.262,4.309-4.131,4.309H221.613z"/>
			<path d="M224,914.685c-6.402,0-11.611-5.209-11.611-11.611c0-6.511,5.1-11.611,11.611-11.611c6.771,0,11.877,4.992,11.877,11.611
				C235.876,909.476,230.548,914.685,224,914.685z M221.613,839.206c-2.58,0-3.829-1.401-3.829-4.309v-15.387
				c0-13.245,11.121-21.497,22.048-29.479c10.853-7.927,21.987-16.124,21.987-29.148c0-12.89-11.129-26.59-31.673-26.59
				c-21.425,0-32.288,12.358-36.369,17.012c-0.48,0.547-0.872,0.98-1.158,1.266c-0.705,0.706-1.573,1.458-2.877,1.458
				c-0.874,0.001-1.825-0.35-2.903-1.068l-2.673-1.868c-3.634-2.545-1.893-5.158-1.055-6.415
				c0.141-0.219,15.254-22.993,47.786-22.993c26.779,0,44.771,15.433,44.771,38.403c0,20.72-15.577,31.622-27.965,40.384
				c-8.994,6.359-16.919,11.853-16.919,19.304v15.122c0,3.039-1.262,4.309-4.131,4.309H221.613z"/>
			<path d="M218.43,834.897v-15.387c0-25.733,44.301-31.833,44.301-58.627c0-13.794-11.672-27.59-32.629-27.59
				c-24.405,0-35.547,15.917-38.2,18.57c-1.061,1.062-2.122,1.857-4.509,0.265l-2.653-1.855c-2.653-1.857-1.856-3.449-0.795-5.041
				c0,0,14.589-22.548,46.954-22.548c26.793,0,43.771,15.651,43.771,37.403c0,35.018-44.567,40.853-44.567,59.688v15.122
				c0,2.387-1.061,3.713-3.448,3.713h-5.041C219.225,838.61,218.43,836.754,218.43,834.897z M224,892.462
				c6.102,0,10.877,4.51,10.877,10.611c0,5.835-4.775,10.611-10.877,10.611c-5.835,0-10.611-4.776-10.611-10.611
				C213.389,896.972,218.165,892.462,224,892.462z"/>
		</g>
		
			<circle fill="none" stroke="#000000" stroke-width="18.4252" stroke-linecap="round" stroke-linejoin="round" stroke-miterlimit="10" cx="228.897" cy="818.001" r="154.499"/>
	</g>
</g>
<g id="jazyk">
	<g>
		
			<path fill="none" stroke="#000000" stroke-width="18.4252" stroke-linecap="round" stroke-linejoin="round" stroke-miterlimit="10" d="
			M712.562,817.221c0,0,73.321,101.211,163.764,101.211s163.764-101.211,163.764-101.211"/>
		<g>
			<g>
				
					<path fill="none" stroke="#000000" stroke-width="18" stroke-linecap="round" stroke-linejoin="round" stroke-miterlimit="10" d="
					M625.868,767.046c0,0,16.82,19.16,30.275,19.16s160.855,0,160.855,0s59.328,2.655,59.328,11.217"/>
				
					<path fill="none" stroke="#000000" stroke-width="18.4252" stroke-linecap="round" stroke-linejoin="round" stroke-miterlimit="10" d="
					M694.064,786.418c0-40.366,153.822-111.62,182.263-54.433"/>
			</g>
			<g>
				
					<path fill="none" stroke="#000000" stroke-width="18" stroke-linecap="round" stroke-linejoin="round" stroke-miterlimit="10" d="
					M1125.868,768.964c0,0-16.82,19.242-30.275,19.242s-160.854,0-160.854,0s-59.329,2.613-59.329,11.176"/>
				
					<path fill="none" stroke="#000000" stroke-width="18.4252" stroke-linecap="round" stroke-linejoin="round" stroke-miterlimit="10" d="
					M1057.672,788.253c0-40.367-153.822-111.62-182.263-54.433"/>
			</g>
		</g>
	</g>
</g>
</svg>
