<?xml version="1.0" encoding="utf-8"?>
<!-- Generator: Adobe Illustrator 16.0.0, SVG Export Plug-In . SVG Version: 6.00 Build 0)  -->
<!DOCTYPE svg PUBLIC "-//W3C//DTD SVG 1.1//EN" "http://www.w3.org/Graphics/SVG/1.1/DTD/svg11.dtd">
<svg version="1.1" id="Layer_1" xmlns="http://www.w3.org/2000/svg" xmlns:xlink="http://www.w3.org/1999/xlink" x="0px" y="0px"
	 width="49.625px" height="35px" viewBox="0 0 49.625 35" enable-background="new 0 0 49.625 35" xml:space="preserve">
<g>
	<rect x="21.052" y="28.92" fill="none" width="7.985" height="0.934"/>
	<polygon fill="none" points="18.165,27.559 19.689,27.559 21.052,27.559 29.037,27.559 30.397,27.559 31.922,27.559 31.922,26.549 
		18.165,26.549 	"/>
	<path d="M36.596,25.189h-3.313h-1.36H18.165h-1.361H13.49V11.428h15.125c-0.01-0.188-0.029-0.375-0.029-0.566
		c0-0.268,0.021-0.531,0.041-0.794H12.128v16.48h4.674v2.371h2.887v2.295h10.707V28.92h2.886v-2.371h4.675v-4.672
		c-0.463-0.074-0.92-0.174-1.359-0.305L36.596,25.189L36.596,25.189z M29.037,29.854h-7.985V28.92h7.985V29.854z M31.922,27.559
		h-1.525h-1.361h-7.984h-1.362h-1.525v-1.01h13.759L31.922,27.559L31.922,27.559z"/>
</g>
<path fill="#ED7524" d="M39.764,1c-5.438,0-9.861,4.424-9.861,9.861s4.426,9.86,9.861,9.86c5.438,0,9.861-4.427,9.861-9.86
	C49.625,5.424,45.201,1,39.764,1z"/>
<g>
	<path fill="#FFFFFF" d="M39.678,7.411c-0.198,0-0.396,0.026-0.658,0.105c-0.238,0.066-0.264,0.211-0.264,0.461v0.698l-1.344-0.092
		V6.779c0.686-0.329,1.486-0.605,2.424-0.605c1.592,0,2.275,0.829,2.275,1.988c0,1.211-0.633,1.75-1.406,2.33
		c-0.461,0.329-0.674,0.487-0.699,1.013l-0.065,1.448h-1.265l-0.064-1.382c-0.053-1,0.289-1.435,1.053-2.014
		c0.476-0.356,0.922-0.58,0.922-1.317C40.586,7.674,40.217,7.411,39.678,7.411z M39.295,13.795c0.58,0,0.922,0.369,0.922,0.856
		c0,0.474-0.329,0.895-0.883,0.895c-0.592,0-0.92-0.396-0.92-0.882C38.414,14.19,38.781,13.795,39.295,13.795z"/>
</g>
</svg>
