<?xml version="1.0" encoding="utf-8"?>
<!-- Generator: Adobe Illustrator 16.0.0, SVG Export Plug-In . SVG Version: 6.00 Build 0)  -->
<!DOCTYPE svg PUBLIC "-//W3C//DTD SVG 1.1//EN" "http://www.w3.org/Graphics/SVG/1.1/DTD/svg11.dtd">
<svg version="1.1" id="Layer_1" xmlns="http://www.w3.org/2000/svg" xmlns:xlink="http://www.w3.org/1999/xlink" x="0px" y="0px"
	 width="49.625px" height="35px" viewBox="0 0 49.625 35" enable-background="new 0 0 49.625 35" xml:space="preserve">
<g>
	<rect x="10.197" y="28.92" fill="none" width="7.984" height="0.934"/>
	<polygon fill="none" points="7.309,27.559 8.834,27.559 10.197,27.559 18.181,27.559 19.542,27.559 21.067,27.559 21.067,26.549 
		7.309,26.549 	"/>
	<path d="M25.74,25.189h-3.313h-1.36H7.309H5.948H2.635V11.428H17.76c-0.01-0.188-0.029-0.375-0.029-0.566
		c0-0.268,0.021-0.531,0.04-0.794H1.273v16.48h4.674v2.371h2.887v2.295h10.707V28.92h2.886v-2.371h4.675v-4.672
		c-0.463-0.074-0.92-0.174-1.36-0.305L25.74,25.189L25.74,25.189z M18.181,29.854h-7.984V28.92h7.984V29.854z M21.067,27.559h-1.526
		H18.18h-7.984H8.834H7.309v-1.01h13.759L21.067,27.559L21.067,27.559z"/>
</g>
<path fill="#ED7524" d="M28.908,1c-5.438,0-9.861,4.424-9.861,9.861s4.425,9.86,9.861,9.86c5.438,0,9.861-4.427,9.861-9.86
	C38.77,5.424,34.346,1,28.908,1z"/>
<g>
	<path fill="#FFFFFF" d="M28.822,7.411c-0.198,0-0.396,0.026-0.658,0.105C27.926,7.582,27.9,7.727,27.9,7.977v0.698l-1.344-0.092
		V6.779c0.686-0.329,1.487-0.605,2.424-0.605c1.592,0,2.276,0.829,2.276,1.988c0,1.211-0.633,1.75-1.407,2.33
		c-0.461,0.329-0.673,0.487-0.699,1.013l-0.065,1.448H27.82l-0.064-1.382c-0.053-1,0.289-1.435,1.053-2.014
		c0.475-0.356,0.922-0.58,0.922-1.317C29.73,7.674,29.361,7.411,28.822,7.411z M28.439,13.795c0.58,0,0.922,0.369,0.922,0.856
		c0,0.474-0.329,0.895-0.883,0.895c-0.592,0-0.92-0.396-0.92-0.882C27.559,14.19,27.926,13.795,28.439,13.795z"/>
</g>
</svg>
