<?xml version="1.0" encoding="utf-8"?>
<!-- Generator: Adobe Illustrator 16.0.0, SVG Export Plug-In . SVG Version: 6.00 Build 0)  -->
<!DOCTYPE svg PUBLIC "-//W3C//DTD SVG 1.1//EN" "http://www.w3.org/Graphics/SVG/1.1/DTD/svg11.dtd">
<svg version="1.1" id="Layer_1" xmlns="http://www.w3.org/2000/svg" xmlns:xlink="http://www.w3.org/1999/xlink" x="0px" y="0px"
	 width="49.625px" height="35px" viewBox="-10.625 0 49.625 35" enable-background="new -10.625 0 49.625 35" xml:space="preserve">
<g>
	<rect x="10.197" y="28.92" fill="none" width="7.984" height="0.934"/>
	<polygon fill="none" points="7.309,27.559 8.834,27.559 10.197,27.559 18.181,27.559 19.542,27.559 21.067,27.559 21.067,26.549 
		7.309,26.549 	"/>
	<path d="M25.74,25.189h-3.313h-1.36H7.309H5.948H2.635V11.428H17.76c-0.01-0.188-0.029-0.375-0.029-0.566
		c0-0.268,0.021-0.531,0.04-0.794H1.273v16.48h4.674v2.371h2.887v2.295h10.707V28.92h2.886v-2.371h4.674v-4.672
		c-0.463-0.074-0.919-0.174-1.361-0.305V25.189z M18.181,29.854h-7.984V28.92h7.984V29.854z M21.067,27.559h-1.526h-1.361h-7.984
		H8.834H7.309v-1.01h13.759V27.559z"/>
</g>
<path fill="#C0392B" d="M28.908,1c-5.438,0-9.861,4.424-9.861,9.861s4.425,9.859,9.861,9.859c5.438,0,9.861-4.426,9.861-9.859
	C38.77,5.424,34.346,1,28.908,1z"/>
<g>
	<path fill="#FFFFFF" d="M28.649,7.915h-0.027L26.984,8.74l-0.288-1.279l2.174-1.074h1.418v8.946h-1.639V7.915z"/>
</g>
</svg>
