<?xml version="1.0" encoding="utf-8"?>
<!-- Generator: Adobe Illustrator 16.0.0, SVG Export Plug-In . SVG Version: 6.00 Build 0)  -->
<!DOCTYPE svg PUBLIC "-//W3C//DTD SVG 1.1//EN" "http://www.w3.org/Graphics/SVG/1.1/DTD/svg11.dtd">
<svg version="1.1" id="Layer_1" xmlns="http://www.w3.org/2000/svg" xmlns:xlink="http://www.w3.org/1999/xlink" x="0px" y="0px"
	 width="25px" height="29px" viewBox="0 0 25 29" enable-background="new 0 0 25 29" xml:space="preserve">
<g>
	<g>
		<g>
			<g>
				<g>
					<polygon points="22.387,25.046 2.614,25.046 2.614,18.564 5.25,18.564 5.25,22.408 19.75,22.408 19.75,18.454 22.387,18.454 
											"/>
				</g>
			</g>
		</g>
	</g>
</g>
<g>
	<g>
		<g>
			<g>
				<g>
					<rect x="5.25" y="14.5" width="13.182" height="1.319"/>
				</g>
			</g>
		</g>
	</g>
</g>
<g>
	<g>
		<g>
			<g>
				<g>
					<polygon points="21.068,29.001 5.25,29.001 5.25,23.849 7.886,23.849 7.886,26.362 18.432,26.362 18.432,23.728 21.068,23.728 
											"/>
				</g>
			</g>
		</g>
	</g>
</g>
<g>
	<g>
		<g>
			<g>
				<g>
					<path d="M25.022,21.092H-0.022V0h25.044V21.092z M2.614,18.454h19.772V2.637H2.614V18.454z"/>
				</g>
			</g>
		</g>
	</g>
</g>
<g>
	<g>
		<g>
			<g>
				<g>
					<path fill="none" stroke="#000000" stroke-width="4" stroke-miterlimit="10" d="M1.295,1.318"/>
				</g>
			</g>
		</g>
	</g>
</g>
<g>
	<g>
		<g>
			<g>
				<g>
					<path fill-rule="evenodd" clip-rule="evenodd" fill="none" d="M5.25,5.272v7.909h14.5V9.739V5.272H5.25L5.25,5.272z
						 M5.25,5.272"/>
				</g>
			</g>
		</g>
	</g>
</g>
<g>
	<g>
		<g>
			<g>
				<g>
					<polygon fill-rule="evenodd" clip-rule="evenodd" fill="none" points="3.932,5.272 3.932,13.182 3.932,14.5 5.25,14.5 
						19.75,14.5 21.068,14.5 21.068,13.182 21.068,9.739 21.068,5.272 21.068,3.954 19.75,3.954 5.25,3.954 3.932,3.954 
						3.932,5.272 					"/>
				</g>
			</g>
		</g>
	</g>
</g>
<g>
	<g>
		<g>
			<g>
				<g>
					<polygon fill-rule="evenodd" clip-rule="evenodd" fill="none" points="6.569,5.272 5.25,6.591 19.75,6.591 18.432,5.272 
						18.432,9.739 18.432,13.182 19.75,11.863 5.25,11.863 6.569,13.182 6.569,5.272 					"/>
				</g>
			</g>
		</g>
	</g>
</g>
<g>
	<g>
		<g>
			<g>
				<g>
					<path fill-rule="evenodd" clip-rule="evenodd" fill="none" d="M6.569,5.272"/>
				</g>
			</g>
		</g>
	</g>
</g>
<g>
	<g>
		<g>
			<g>
				<g>
					<polygon fill-rule="evenodd" clip-rule="evenodd" points="5.25,5.272 5.25,13.182 19.75,13.182 19.75,9.738 19.75,5.272 
						5.25,5.272 					"/>
				</g>
			</g>
		</g>
	</g>
</g>
<g>
	<g>
		<g>
			<g>
				<g>
					<polygon fill-rule="evenodd" clip-rule="evenodd" fill="#FFFFFF" points="7.886,7.909 7.886,10.546 17.113,10.546 
						17.113,9.398 17.113,7.909 7.886,7.909 					"/>
				</g>
			</g>
		</g>
	</g>
</g>
<g>
	<g>
		<g>
			<g>
				<g>
					<path fill-rule="evenodd" clip-rule="evenodd" fill="#D7D7D7" d="M5.25,5.272"/>
				</g>
			</g>
		</g>
	</g>
</g>
<g>
	<g>
		<g>
			<g>
				<g>
					<path fill-rule="evenodd" clip-rule="evenodd" fill="none" d="M5.25,5.272v7.909h14.5V9.739V5.272H5.25L5.25,5.272z
						 M5.25,5.272"/>
				</g>
			</g>
		</g>
	</g>
</g>
</svg>
