<?xml version="1.0" encoding="utf-8"?>
<!-- Generator: Adobe Illustrator 16.0.0, SVG Export Plug-In . SVG Version: 6.00 Build 0)  -->
<!DOCTYPE svg PUBLIC "-//W3C//DTD SVG 1.1//EN" "http://www.w3.org/Graphics/SVG/1.1/DTD/svg11.dtd">
<svg version="1.1" id="Layer_1" xmlns="http://www.w3.org/2000/svg" xmlns:xlink="http://www.w3.org/1999/xlink" x="0px" y="0px"
	 width="49.625px" height="35px" viewBox="0 0 49.625 35" enable-background="new 0 0 49.625 35" xml:space="preserve">
<rect x="21.052" y="28.92" fill="none" width="7.985" height="0.934"/>
<polygon fill="none" points="18.165,27.559 19.689,27.559 21.052,27.559 29.037,27.559 30.396,27.559 31.922,27.559 31.922,26.549 
	18.165,26.549 "/>
<path d="M36.598,10.068h-24.47v16.48h4.674v2.371h2.887v2.295h10.708V28.92h2.886v-2.371h4.675V11.428v-1.36H36.598z M29.037,29.854
	h-7.985V28.92h7.985V29.854z M31.922,27.559h-1.525h-1.36h-7.984H19.69h-1.525v-1.01h13.759L31.922,27.559z M36.596,25.189h-3.313
	h-1.36H18.165h-1.361H13.49V11.428h23.107L36.596,25.189z"/>
<polygon points="9.937,16.308 8.876,15.731 6.795,18.283 6.795,18.346 8.876,20.886 9.937,20.31 8.333,18.309 "/>
<polygon points="40.148,16.308 41.752,18.309 40.148,20.31 41.209,20.886 43.289,18.334 43.289,18.271 41.209,15.731 "/>
</svg>
