<?xml version="1.0" encoding="utf-8"?>
<!-- Generator: Adobe Illustrator 16.0.0, SVG Export Plug-In . SVG Version: 6.00 Build 0)  -->
<!DOCTYPE svg PUBLIC "-//W3C//DTD SVG 1.1//EN" "http://www.w3.org/Graphics/SVG/1.1/DTD/svg11.dtd">
<svg version="1.1" id="Layer_1" xmlns="http://www.w3.org/2000/svg" xmlns:xlink="http://www.w3.org/1999/xlink" x="0px" y="0px"
	 width="28px" height="28px" viewBox="0 0 28 28" enable-background="new 0 0 28 28" xml:space="preserve">
<g>
	<polygon fill="#FFFFFF" points="19.858,14.061 15.465,16.842 11.07,19.623 11.07,14.061 11.07,8.498 15.465,11.28 	"/>
	<g>
		<g>
			<path fill="#FFFFFF" d="M14,27C6.832,27,1,21.168,1,14C1,6.832,6.832,1,14,1C21.168,1,27,6.832,27,14C27,21.168,21.168,27,14,27z
				 M14,3.563C8.245,3.563,3.563,8.246,3.563,14c0,5.755,4.682,10.437,10.437,10.437S24.438,19.756,24.438,14
				C24.438,8.246,19.755,3.563,14,3.563z"/>
		</g>
	</g>
</g>
</svg>
