<?xml version="1.0" encoding="utf-8"?>
<!-- Generator: Adobe Illustrator 16.0.0, SVG Export Plug-In . SVG Version: 6.00 Build 0)  -->
<!DOCTYPE svg PUBLIC "-//W3C//DTD SVG 1.1//EN" "http://www.w3.org/Graphics/SVG/1.1/DTD/svg11.dtd">
<svg version="1.1" id="Layer_1" xmlns="http://www.w3.org/2000/svg" xmlns:xlink="http://www.w3.org/1999/xlink" x="0px" y="0px"
	 width="66.917px" height="69.624px" viewBox="-18.552 -21.209 66.917 69.624"
	 enable-background="new -18.552 -21.209 66.917 69.624" xml:space="preserve">
<g>
	<polygon fill="none" points="-6.921,-7.27 -6.921,-7.27 -7.063,-7.851 	"/>
	<polygon fill="none" points="42.333,28.198 42.339,28.196 42.333,28.198 	"/>
	<polygon fill="none" points="1.214,42.965 -9.669,-1.632 -10.456,-1.44 0.623,43.959 38.942,34.608 38.747,33.806 	"/>
	<path fill="#5D6E7B" d="M42.807,30.14l1.95-0.476L32.728-19.621L-9.479-9.32l0.616,2.524l-1.95,0.476l0.669,2.744l-2.729,0.667
		l12.027,49.287L41.36,36.077l-0.67-2.745l2.732-0.667L42.807,30.14z M0.623,43.959l-11.079-45.4l0.787-0.192L1.214,42.965
		l37.533-9.159l0.195,0.802L0.623,43.959z M42.333,28.198L42.333,28.198l-38.317,9.35L-6.921-7.27l0,0l-0.142-0.581l38.321-9.353
		l11.08,45.4L42.333,28.198z"/>
</g>
</svg>
