<?xml version="1.0" encoding="utf-8"?>
<!-- Generator: Adobe Illustrator 15.0.2, SVG Export Plug-In . SVG Version: 6.00 Build 0)  -->
<!DOCTYPE svg PUBLIC "-//W3C//DTD SVG 1.1//EN" "http://www.w3.org/Graphics/SVG/1.1/DTD/svg11.dtd">
<svg version="1.1" id="Layer_1" xmlns="http://www.w3.org/2000/svg" xmlns:xlink="http://www.w3.org/1999/xlink" x="0px" y="0px"
	 width="34.459px" height="35px" viewBox="0 0 34.459 35" enable-background="new 0 0 34.459 35" xml:space="preserve">
<path fill="#3DC89C" d="M31.213,24.895c-0.459-1.719-1.608-2.918-2.794-2.918c-0.158,0-0.305,0.02-0.443,0.058l-13.113,3.514
	l0.976-4.262l11.137-2.983c1.313-0.353,1.905-2.114,1.375-4.098c-0.461-1.719-1.608-2.919-2.795-2.919
	c-0.156,0-0.307,0.02-0.443,0.057L10.795,15.18c-0.4,0.107-0.639,0.52-0.532,0.92l2.866,10.694c0.043,0.158,0.14,0.3,0.271,0.399
	c0.026,0.021,0.055,0.037,0.084,0.053c0.045,0.023,0.097,0.051,0.126,0.062c0.104,0.035,0.189,0.058,0.37,0.025
	c0.022-0.003,0.046-0.007,0.067-0.014l12.429-3.328c-0.111,0.654-0.068,1.402,0.129,2.139c0.197,0.739,0.541,1.406,0.967,1.915
	L10.07,32.734L4.727,12.805L24.11,7.61c0.689-0.186,1.199-0.768,1.432-1.639c0.191-0.725,0.172-1.598-0.059-2.46
	c-0.461-1.719-1.609-2.919-2.793-2.919c-0.154,0-0.307,0.02-0.446,0.058L5.048,5.258C4.78,5.332,4.574,5.545,4.512,5.816
	l-1.437,6.28c-0.004,0.015-0.007,0.03-0.009,0.045c-0.008,0.043-0.012,0.089-0.012,0.143c0,0.043,0.016,0.148,0.027,0.19
	l5.727,21.37c0.085,0.331,0.384,0.563,0.727,0.563c0.043,0,0.152-0.017,0.194-0.026l20.113-5.389
	C31.155,28.639,31.744,26.876,31.213,24.895z M25.513,12.791c0.002,0,0.014-0.004,0.043-0.004c0.358,0,1.043,0.687,1.34,1.807
	c0.315,1.175,0.035,2.163-0.365,2.262c-0.355,0-1.039-0.687-1.34-1.804c-0.164-0.612-0.187-1.212-0.062-1.685
	C25.213,13.052,25.354,12.833,25.513,12.791z M23.608,13.3c-0.112,0.653-0.069,1.399,0.127,2.139
	c0.199,0.74,0.541,1.407,0.968,1.915l-8.965,2.4L14.651,15.7L23.608,13.3z M13.199,16.089l1.234,4.601l-0.64,2.789l-1.886-7.042
	L13.199,16.089z M29.394,27.546c-0.354,0-1.039-0.688-1.34-1.807c-0.164-0.612-0.185-1.21-0.058-1.688
	c0.082-0.312,0.224-0.53,0.372-0.569c0.005-0.002,0.021-0.006,0.051-0.006c0.357,0,1.042,0.688,1.344,1.809
	c0.152,0.57,0.178,1.164,0.07,1.627C29.755,27.251,29.604,27.498,29.394,27.546z M22.644,2.101c0.015-0.004,0.029-0.006,0.047-0.006
	c0.357,0,1.041,0.688,1.34,1.808c0.164,0.611,0.187,1.208,0.061,1.684C24.006,5.9,23.865,6.12,23.666,6.164
	c-0.358,0-1.042-0.686-1.341-1.805c-0.164-0.612-0.186-1.21-0.061-1.684C22.349,2.361,22.489,2.142,22.644,2.101z M20.742,2.61
	c-0.111,0.654-0.067,1.4,0.129,2.136c0.196,0.74,0.538,1.408,0.966,1.917L4.816,11.225l1.06-4.632L20.742,2.61z"/>
</svg>
