<?xml version="1.0" encoding="utf-8"?>
<!-- Generator: Adobe Illustrator 16.0.0, SVG Export Plug-In . SVG Version: 6.00 Build 0)  -->
<!DOCTYPE svg PUBLIC "-//W3C//DTD SVG 1.1//EN" "http://www.w3.org/Graphics/SVG/1.1/DTD/svg11.dtd">
<svg version="1.1" id="Layer_1" xmlns="http://www.w3.org/2000/svg" xmlns:xlink="http://www.w3.org/1999/xlink" x="0px" y="0px"
	 width="34.459px" height="35px" viewBox="0 0 34.459 35" enable-background="new 0 0 34.459 35" xml:space="preserve">
<path fill="#FFFFFF" d="M31.213,24.895c-0.459-1.719-1.608-2.919-2.794-2.919c-0.158,0-0.305,0.019-0.444,0.057l-13.112,3.514
	l0.976-4.262l11.137-2.983c1.313-0.353,1.905-2.114,1.375-4.098c-0.462-1.719-1.61-2.919-2.795-2.919
	c-0.156,0-0.307,0.02-0.443,0.057l-14.319,3.837c-0.4,0.107-0.639,0.52-0.532,0.92l2.866,10.694c0.043,0.158,0.14,0.3,0.271,0.4
	c0.026,0.02,0.055,0.037,0.084,0.052c0.045,0.025,0.097,0.051,0.126,0.061c0.104,0.037,0.189,0.058,0.37,0.027
	c0.022-0.003,0.046-0.007,0.067-0.013l12.428-3.329c-0.112,0.656-0.068,1.403,0.129,2.139c0.198,0.739,0.54,1.406,0.967,1.915
	l-17.502,4.69L4.725,12.804L24.11,7.61c0.691-0.186,1.2-0.768,1.432-1.639c0.192-0.725,0.172-1.598-0.059-2.46
	c-0.461-1.719-1.609-2.919-2.793-2.919c-0.154,0-0.305,0.02-0.446,0.058L5.048,5.258C4.78,5.332,4.574,5.545,4.512,5.816
	l-1.437,6.28c-0.004,0.015-0.007,0.03-0.009,0.045c-0.008,0.043-0.012,0.089-0.012,0.143c0,0.043,0.016,0.148,0.027,0.19
	l5.727,21.37c0.085,0.331,0.384,0.563,0.727,0.563c0.043,0,0.152-0.016,0.194-0.026l20.113-5.389
	C31.155,28.638,31.744,26.876,31.213,24.895z M25.512,12.791c0.002,0,0.015-0.004,0.043-0.004c0.359,0,1.043,0.687,1.341,1.807
	c0.315,1.175,0.034,2.163-0.365,2.262c-0.357,0-1.041-0.687-1.341-1.804c-0.164-0.612-0.186-1.212-0.062-1.685
	C25.213,13.052,25.355,12.833,25.512,12.791z M23.609,13.3c-0.113,0.653-0.07,1.399,0.127,2.139c0.198,0.74,0.54,1.407,0.967,1.915
	l-8.965,2.4L14.651,15.7L23.609,13.3z M13.199,16.089l1.234,4.601l-0.64,2.788l-1.886-7.042L13.199,16.089z M29.394,27.546
	c-0.356,0-1.039-0.688-1.34-1.807c-0.164-0.612-0.185-1.21-0.058-1.686c0.082-0.313,0.223-0.531,0.372-0.571
	c0.005-0.001,0.021-0.005,0.051-0.005c0.358,0,1.042,0.688,1.343,1.808c0.153,0.571,0.179,1.164,0.071,1.627
	C29.755,27.251,29.604,27.498,29.394,27.546z M22.643,2.101c0.014-0.004,0.03-0.006,0.048-0.006c0.357,0,1.04,0.688,1.34,1.808
	c0.164,0.611,0.185,1.208,0.059,1.684C24.006,5.9,23.865,6.12,23.666,6.164c-0.358,0-1.042-0.686-1.341-1.805
	c-0.164-0.612-0.186-1.21-0.061-1.684C22.349,2.361,22.489,2.142,22.643,2.101z M20.742,2.61c-0.111,0.654-0.067,1.4,0.129,2.136
	c0.197,0.74,0.538,1.408,0.966,1.917L4.816,11.225l1.06-4.632L20.742,2.61z"/>
</svg>
