<?xml version="1.0" encoding="utf-8"?>
<!-- Generator: Adobe Illustrator 16.0.0, SVG Export Plug-In . SVG Version: 6.00 Build 0)  -->
<!DOCTYPE svg PUBLIC "-//W3C//DTD SVG 1.1//EN" "http://www.w3.org/Graphics/SVG/1.1/DTD/svg11.dtd">
<svg version="1.1" id="Layer_1" xmlns="http://www.w3.org/2000/svg" xmlns:xlink="http://www.w3.org/1999/xlink" x="0px" y="0px"
	 width="39px" height="35px" viewBox="0 0 39 35" enable-background="new 0 0 39 35" xml:space="preserve">
<path d="M25.834,2.907H0.006V19.39H4.68v3.37h2.887v3.295h10.707V22.76h2.886v-3.37h4.674V2.907z M16.913,24.692H8.929V22.76h7.984
	V24.692z M19.8,21.397h-1.526h-1.361H8.929H7.567H6.041V19.39H19.8V21.397z M24.473,18.029H21.16H19.8H6.041H4.68H1.367V4.268
	h23.106V18.029z"/>
<g>
	<path fill="#308B6D" d="M27.641,13.868c-5.438,0-9.862,4.424-9.862,9.862c0,5.437,4.425,9.859,9.862,9.859
		c5.438,0,9.861-4.425,9.861-9.859C37.502,18.292,33.078,13.868,27.641,13.868z"/>
	<polygon fill="#FFFFFF" points="26.65,28.264 28.619,28.264 28.619,24.803 32.098,24.803 32.098,22.834 28.619,22.834 
		28.619,19.329 26.65,19.329 26.65,22.834 23.172,22.834 23.172,24.803 26.65,24.803 	"/>
	<path fill="#FFFFFF" d="M27.641,12.553c-6.162,0-11.177,5.013-11.177,11.177c0,6.162,5.015,11.176,11.177,11.176
		c6.164,0,11.176-5.014,11.176-11.176C38.816,17.565,33.805,12.553,27.641,12.553z M27.641,33.591c-5.438,0-9.862-4.425-9.862-9.86
		c0-5.438,4.425-9.861,9.862-9.861c5.438,0,9.861,4.424,9.861,9.861C37.502,29.166,33.078,33.591,27.641,33.591z"/>
</g>
</svg>
