<?xml version="1.0" encoding="utf-8"?>
<!-- Generator: Adobe Illustrator 16.0.0, SVG Export Plug-In . SVG Version: 6.00 Build 0)  -->
<!DOCTYPE svg PUBLIC "-//W3C//DTD SVG 1.1//EN" "http://www.w3.org/Graphics/SVG/1.1/DTD/svg11.dtd">
<svg version="1.1" id="Layer_1" xmlns="http://www.w3.org/2000/svg" xmlns:xlink="http://www.w3.org/1999/xlink" x="0px" y="0px"
	 width="39px" height="35px" viewBox="0 0 39 35" enable-background="new 0 0 39 35" xml:space="preserve">
<path fill="#308B6D" d="M27.641,0c-5.438,0-9.862,4.424-9.862,9.862c0,5.437,4.425,9.859,9.862,9.859
	c5.438,0,9.861-4.426,9.861-9.859C37.502,4.424,33.078,0,27.641,0z"/>
<polygon fill="#FFFFFF" points="26.65,14.396 28.619,14.396 28.619,10.935 32.098,10.935 32.098,8.966 28.619,8.966 28.619,5.461 
	26.65,5.461 26.65,8.966 23.172,8.966 23.172,10.935 26.65,10.935 "/>
<g>
	<rect x="8.929" y="28.92" fill="none" width="7.984" height="1.934"/>
	<polygon fill="none" points="6.041,27.559 7.567,27.559 8.929,27.559 16.913,27.559 18.274,27.559 19.8,27.559 19.8,25.549 
		6.041,25.549 	"/>
	<path d="M24.473,24.189H21.16H19.8H6.041H4.68H1.367V10.428h15.125c-0.01-0.188-0.029-0.375-0.029-0.566
		c0-0.268,0.021-0.531,0.04-0.794H0.006v16.48H4.68v3.371h2.887v3.295h10.707V28.92h2.886v-3.371h4.674v-4.672
		c-0.463-0.074-0.919-0.174-1.361-0.305V24.189z M16.913,30.854H8.929V28.92h7.984V30.854z M19.8,27.559h-1.526h-1.361H8.929H7.567
		H6.041v-2.01H19.8V27.559z"/>
</g>
</svg>
