<?xml version="1.0" encoding="utf-8"?>
<!-- Generator: Adobe Illustrator 16.0.0, SVG Export Plug-In . SVG Version: 6.00 Build 0)  -->
<!DOCTYPE svg PUBLIC "-//W3C//DTD SVG 1.1//EN" "http://www.w3.org/Graphics/SVG/1.1/DTD/svg11.dtd">
<svg version="1.1" id="Layer_1" xmlns="http://www.w3.org/2000/svg" xmlns:xlink="http://www.w3.org/1999/xlink" x="0px" y="0px"
	 width="49.625px" height="35px" viewBox="0 0 49.625 35" enable-background="new 0 0 49.625 35" xml:space="preserve">
<g>
	<rect x="20.822" y="28.92" fill="none" width="7.985" height="0.934"/>
	<polygon fill="none" points="17.934,27.559 19.459,27.559 20.822,27.559 28.807,27.559 30.167,27.559 31.691,27.559 31.691,26.549 
		17.934,26.549 	"/>
	<path d="M36.365,25.189h-3.313h-1.36H17.934h-1.361H13.26V11.428h15.125c-0.01-0.188-0.029-0.375-0.029-0.566
		c0-0.268,0.021-0.531,0.041-0.794H11.898v16.48h4.674v2.371h2.887v2.295h10.707V28.92h2.886v-2.371h4.675v-4.672
		c-0.463-0.074-0.92-0.174-1.361-0.305V25.189z M28.807,29.854h-7.985V28.92h7.985V29.854z M31.691,27.559h-1.525h-1.361h-7.984
		h-1.362h-1.525v-1.01h13.759v1.01H31.691z"/>
</g>
<path fill="#308B6D" d="M39.533,1c-5.438,0-9.861,4.424-9.861,9.862c0,5.437,4.426,9.859,9.861,9.859
	c5.438,0,9.861-4.426,9.861-9.859C49.395,5.424,44.971,1,39.533,1z"/>
<polygon fill="#FFFFFF" points="38.543,15.396 40.512,15.396 40.512,11.935 43.99,11.935 43.99,9.966 40.512,9.966 40.512,6.461 
	38.543,6.461 38.543,9.966 35.064,9.966 35.064,11.935 38.543,11.935 "/>
</svg>
