<?xml version="1.0" encoding="utf-8"?>
<!-- Generator: Adobe Illustrator 16.0.0, SVG Export Plug-In . SVG Version: 6.00 Build 0)  -->
<!DOCTYPE svg PUBLIC "-//W3C//DTD SVG 1.1//EN" "http://www.w3.org/Graphics/SVG/1.1/DTD/svg11.dtd">
<svg version="1.1" id="Layer_1" xmlns="http://www.w3.org/2000/svg" xmlns:xlink="http://www.w3.org/1999/xlink" x="0px" y="0px"
	 width="39px" height="35px" viewBox="0 0 39 35" enable-background="new 0 0 39 35" xml:space="preserve">
<path d="M25.834,11.759H0.006V28.24H4.68v3.371h2.887v3.295h10.707v-3.295h2.886V28.24h4.674V11.759z M16.913,33.544H8.929v-1.933
	h7.984V33.544z M19.8,30.249h-1.526h-1.361H8.929H7.567H6.041V28.24H19.8V30.249z M24.473,26.881H21.16H19.8H6.041H4.68H1.367
	V13.119h23.105V26.881z"/>
<g>
	<path fill="#308B6D" d="M27.641,2.691c-5.438,0-9.862,4.424-9.862,9.862c0,5.437,4.425,9.859,9.862,9.859
		c5.438,0,9.861-4.425,9.861-9.859C37.502,7.115,33.078,2.691,27.641,2.691z"/>
	<polygon fill="#FFFFFF" points="26.65,17.087 28.619,17.087 28.619,13.626 32.098,13.626 32.098,11.657 28.619,11.657 
		28.619,8.152 26.65,8.152 26.65,11.657 23.172,11.657 23.172,13.626 26.65,13.626 	"/>
	<path fill="#FFFFFF" d="M27.641,1.376c-6.162,0-11.177,5.013-11.177,11.177c0,6.162,5.015,11.175,11.177,11.175
		c6.164,0,11.176-5.014,11.176-11.175C38.816,6.388,33.805,1.376,27.641,1.376z M27.641,22.414c-5.438,0-9.862-4.425-9.862-9.86
		c0-5.438,4.425-9.861,9.862-9.861c5.438,0,9.861,4.424,9.861,9.861C37.502,17.989,33.078,22.414,27.641,22.414z"/>
</g>
</svg>
