<?xml version="1.0" encoding="utf-8"?>
<!-- Generator: Adobe Illustrator 16.0.0, SVG Export Plug-In . SVG Version: 6.00 Build 0)  -->
<!DOCTYPE svg PUBLIC "-//W3C//DTD SVG 1.1//EN" "http://www.w3.org/Graphics/SVG/1.1/DTD/svg11.dtd">
<svg version="1.1" id="Layer_1" xmlns="http://www.w3.org/2000/svg" xmlns:xlink="http://www.w3.org/1999/xlink" x="0px" y="0px"
	 width="39px" height="35px" viewBox="-0.092 -0.047 39 35" enable-background="new -0.092 -0.047 39 35" xml:space="preserve">
<g>
	<g>
		<g>
			<g>
				<g>
					<g>
						<g>
							<polygon points="22.379,25.015 2.631,25.015 2.631,18.541 5.264,18.541 5.264,22.38 19.746,22.38 19.746,18.432 
								22.379,18.432 							"/>
						</g>
					</g>
				</g>
			</g>
		</g>
		<g>
			<g>
				<g>
					<g>
						<g>
							<rect x="5.264" y="14.481" width="13.165" height="1.316"/>
						</g>
					</g>
				</g>
			</g>
		</g>
		<g>
			<g>
				<g>
					<g>
						<g>
							<polygon points="21.063,28.965 5.264,28.965 5.264,23.819 7.898,23.819 7.898,26.328 18.429,26.328 18.429,23.698 
								21.063,23.698 							"/>
						</g>
					</g>
				</g>
			</g>
		</g>
		<g>
			<g>
				<g>
					<g>
						<g>
							<path d="M25.012,21.064H0V0h25.012V21.064z M2.631,18.432h19.748V2.634H2.631V18.432z"/>
						</g>
					</g>
				</g>
			</g>
		</g>
		<g>
			<g>
				<g>
					<g>
						<g>
							<path fill="none" stroke="#000000" stroke-width="4" stroke-miterlimit="10" d="M1.314,1.317"/>
						</g>
					</g>
				</g>
			</g>
		</g>
		<g>
			<g>
				<g>
					<g>
						<g>
							<path fill="none" d="M5.264,5.265v7.9h14.482V9.726V5.265H5.264L5.264,5.265z"/>
						</g>
					</g>
				</g>
			</g>
		</g>
		<g>
			<g>
				<g>
					<g>
						<g>
							<polygon fill="none" points="3.947,5.265 3.947,13.166 3.947,14.481 5.264,14.481 19.746,14.481 21.063,14.481 
								21.063,13.166 21.063,9.726 21.063,5.265 21.063,3.949 19.746,3.949 5.264,3.949 3.947,3.949 							"/>
						</g>
					</g>
				</g>
			</g>
		</g>
		<g>
			<g>
				<g>
					<g>
						<g>
							<polygon fill="none" points="6.582,5.265 5.264,6.582 19.746,6.582 18.429,5.265 18.429,9.726 18.429,13.166 19.746,11.848 
								5.264,11.848 6.582,13.166 							"/>
						</g>
					</g>
				</g>
			</g>
		</g>
		<g>
			<g>
				<g>
					<g>
						<g>
							<path fill="none" d="M6.582,5.265"/>
						</g>
					</g>
				</g>
			</g>
		</g>
		<g>
			<g>
				<g>
					<g>
						<g>
							<polygon points="5.264,5.265 5.264,13.166 19.746,13.166 19.746,9.726 19.746,5.265 							"/>
						</g>
					</g>
				</g>
			</g>
		</g>
		<g>
			<g>
				<g>
					<g>
						<g>
							<polygon fill="#FFFFFF" points="7.898,7.899 7.898,10.533 17.112,10.533 17.112,9.386 17.112,7.899 							"/>
						</g>
					</g>
				</g>
			</g>
		</g>
		<g>
			<g>
				<g>
					<g>
						<g>
							<path fill="#D7D7D7" d="M5.264,5.265"/>
						</g>
					</g>
				</g>
			</g>
		</g>
		<g>
			<g>
				<g>
					<g>
						<g>
							<path fill="none" d="M5.264,5.265v7.9h14.482V9.726V5.265H5.264L5.264,5.265z"/>
						</g>
					</g>
				</g>
			</g>
		</g>
	</g>
	<g>
		<path fill="#308B6D" d="M27.641,13.868c-5.438,0-9.862,4.424-9.862,9.862c0,5.437,4.425,9.86,9.862,9.86
			c5.438,0,9.861-4.425,9.861-9.86C37.502,18.292,33.078,13.868,27.641,13.868z"/>
		<polygon fill="#FFFFFF" points="26.65,28.264 28.619,28.264 28.619,24.803 32.098,24.803 32.098,22.834 28.619,22.834 
			28.619,19.329 26.65,19.329 26.65,22.834 23.172,22.834 23.172,24.803 26.65,24.803 		"/>
		<path fill="#FFFFFF" d="M27.641,12.553c-6.162,0-11.177,5.013-11.177,11.177c0,6.162,5.015,11.177,11.177,11.177
			c6.164,0,11.176-5.015,11.176-11.177C38.816,17.565,33.805,12.553,27.641,12.553z M27.641,33.591c-5.438,0-9.862-4.425-9.862-9.86
			c0-5.438,4.425-9.862,9.862-9.862c5.438,0,9.861,4.424,9.861,9.862C37.502,29.166,33.078,33.591,27.641,33.591z"/>
	</g>
</g>
</svg>
